<svg
  class="svg-icon"
  width="280"
  height="280"
  xmlns="http://www.w3.org/2000/svg"
  version="1.1"
  viewBox="0 0 100 100"
  style="filter: url(#shadow);"
>
  <defs>
    <filter id="shadow" x="-50%" y="-50%" width="200%" height="200%">
      <feDropShadow
        dx="0"
        dy="0"
        stdDeviation="4 4"
        flood-color="rgb(150,150,150)"
        flood-opacity="0.5"
      />
    </filter>
    <clipPath id="clip-path">
      <path
        d="M75 10H25C16.7 10 10 16.7 10 25V75C10 83.3 16.7 90 25 90H75C83.3 90 90 83.3 90 75V25C90 16.7 83.3 10 75 10Z"
      />
    </clipPath>
  </defs>

  <g clip-path="url(#clip-path)">
    <path
      d="M0,70 Q20,10 40,30 T80,30 T120,40 V100 H0 Z"
      fill="#4fc08d"
      style="transition: stroke 0.3s ease; stroke: rgba(255, 255, 255, 1);"
    >
      <animate
        attributeName="d"
        values="
          M0,70 Q20,10 40,30 T80,30 T120,40 V100 H0 Z;
          M-40,150 Q-20,10 0,30 T40,30 T90,40 V100 H-40 Z;
          M0,70 Q20,10 40,30 T80,30 T120,40 V100 H0 Z
        "
        dur="6s"
        repeatCount="indefinite"
      />
    </path>
    <path
      d="M0,70 Q20,20 40,40 T80,40 T120,40 V100 H0 Z"
      fill="#33c762"
      style="transition: stroke 0.3s ease; stroke: rgba(255, 255, 255, 1);"
    >
      <animate
        attributeName="d"
        values="
          M0,70 Q20,20 40,40 T80,40 T120,40 V100 H0 Z;
          M-40,70 Q-20,20 0,40 T40,40 T90,40 V100 H-40 Z;
          M0,70 Q20,20 40,40 T80,40 T120,40 V100 H0 Z
        "
        dur="4s"
        repeatCount="indefinite"
      />
    </path>
    <path
      d="M0,70 Q20,30 40,50 T80,50 T120,50 V100 H0 Z"
      fill="#4acc80"
      style="transition: stroke 0.3s ease; stroke: rgba(255, 255, 255, 1);"
    >
      <animate
        attributeName="d"
        values="
          M0,70 Q20,30 40,50 T80,50 T120,50 V100 H0 Z;
          M-40,70 Q-20,30 0,50 T40,50 T90,50 V100 H-40 Z;
          M0,70 Q20,30 40,50 T80,50 T120,50 V100 H0 Z
        "
        dur="2s"
        repeatCount="indefinite"
      />
    </path>
  </g>

  <path
    d="M75 10H25C16.7 10 10 16.7 10 25V75C10 83.3 16.7 90 25 90H75C83.3 90 90 83.3 90 75V25C90 16.7 83.3 10 75 10Z"
    fill="transparent"
    stroke="#333"
    stroke-width="2"
    filter="url(#shadow)"
    style="transition: stroke 0.3s ease; stroke: rgba(255, 255, 255, 1);"
  />

  <path
    d="M50 20L50 80M20 50H80"
    stroke="#fff"
    stroke-width="2"
    stroke-linecap="round"
  >
    <animate
      attributeName="stroke"
      values="#fff;#f0f0f0;#fff"
      dur="2s"
      repeatCount="indefinite"
    />
  </path>

  <circle
    cx="50"
    cy="50"
    r="4"
    fill="#fff"
    style="transition: r 0.3s ease;"
  >
    <animate
      attributeName="r"
      from="4"
      to="8"
      dur="2s"
      repeatCount="indefinite"
    />
  </circle>
</svg>
